<svg width="432" height="71" viewBox="0 0 432 71" fill="none" xmlns="http://www.w3.org/2000/svg">
<path d="M15.2805 66.544L14.7627 67.3995L14.7676 67.4025L15.2805 66.544ZM4.3365 54.256L3.42314 54.6632L3.42612 54.6698L3.42919 54.6765L4.3365 54.256ZM4.5285 17.392L3.62764 16.9578L3.62544 16.9625L4.5285 17.392ZM15.8565 5.008L16.3645 5.8694L16.3726 5.86452L15.8565 5.008ZM46.1925 1.936L45.8998 2.8922L45.9088 2.89494L45.9178 2.89752L46.1925 1.936ZM53.2005 5.776L52.4657 6.45428L52.4793 6.46897L52.4934 6.4831L53.2005 5.776ZM46.6725 17.968H45.6725V18.968H46.6725V17.968ZM45.4245 12.208L44.496 12.5794L44.5036 12.5984L44.512 12.6171L45.4245 12.208ZM41.4885 7.504L40.9208 8.32721L40.9305 8.33395L40.9405 8.34046L41.4885 7.504ZM20.8485 9.136L21.4252 9.95297L21.4283 9.95079L20.8485 9.136ZM13.6485 19.312L12.7025 18.9876L12.6985 18.9998L13.6485 19.312ZM13.7445 51.952L12.7986 52.2763L12.8014 52.2845L12.8043 52.2926L13.7445 51.952ZM21.3285 62.032L20.7738 62.8641L20.7808 62.8687L21.3285 62.032ZM40.7205 65.2L40.8309 66.1939L40.8309 66.1939L40.7205 65.2ZM45.3285 64.336L45.6032 65.2975L46.3285 65.0903V64.336H45.3285ZM44.1765 44.656L43.3701 45.2474L43.3925 45.278L43.4172 45.3068L44.1765 44.656ZM41.2965 42.832L41.0289 43.7955L41.0594 43.804L41.0905 43.8105L41.2965 42.832ZM37.0725 42.352H36.0725V43.352H37.0725V42.352ZM37.0725 38.32V37.32H36.0725V38.32H37.0725ZM62.0325 38.32H63.0325V37.32H62.0325V38.32ZM62.0325 42.352V43.352H63.0325V42.352H62.0325ZM58.2885 42.832L57.9902 41.8775L57.9812 41.8803L57.9723 41.8833L58.2885 42.832ZM55.8885 44.752L55.0565 44.1973L55.0433 44.2171L55.031 44.2375L55.8885 44.752ZM55.0245 66.544L55.4424 67.4525L56.0245 67.1847V66.544H55.0245ZM45.1365 69.904L45.3397 70.8831L45.3485 70.8813L45.3573 70.8793L45.1365 69.904ZM33.8085 69.96C26.5132 69.96 20.5271 68.5135 15.7934 65.6855L14.7676 67.4025C19.8899 70.4625 26.2558 71.96 33.8085 71.96V69.96ZM15.7983 65.6885C11.1076 62.8494 7.59369 58.9063 5.24381 53.8355L3.42919 54.6765C5.94331 60.1017 9.72536 64.3506 14.7627 67.3995L15.7983 65.6885ZM5.24986 53.8488C2.95017 48.6901 1.7845 42.6261 1.7845 35.632H-0.2155C-0.2155 42.8459 0.986835 49.1979 3.42314 54.6632L5.24986 53.8488ZM1.7845 35.632C1.7845 28.8408 3.01035 22.9123 5.43156 17.8215L3.62544 16.9625C1.05465 22.3677 -0.2155 28.5992 -0.2155 35.632H1.7845ZM5.42934 17.8261C7.9051 12.6889 11.5459 8.71107 16.3645 5.86936L15.3485 4.14663C10.1831 7.19292 6.2719 11.471 3.62766 16.9579L5.42934 17.8261ZM16.3726 5.86452C21.1728 2.9721 27.1591 1.496 34.3845 1.496V-0.504004C26.8899 -0.504004 20.5242 1.02789 15.3404 4.15147L16.3726 5.86452ZM34.3845 1.496C39.0613 1.496 42.8905 1.97099 45.8998 2.8922L46.4852 0.979795C43.2225 -0.018993 39.1797 -0.504004 34.3845 -0.504004V1.496ZM45.9178 2.89752C48.9507 3.76407 51.0974 4.97192 52.4657 6.45428L53.9353 5.09772C52.2316 3.25207 49.7063 1.89992 46.4672 0.974471L45.9178 2.89752ZM52.4934 6.4831C53.9274 7.91714 54.6005 9.49424 54.6005 11.248H56.6005C56.6005 8.90575 55.6736 6.83485 53.9076 5.06889L52.4934 6.4831ZM54.6005 11.248C54.6005 12.9585 53.9049 14.2904 52.433 15.3262L53.584 16.9618C55.5681 15.5656 56.6005 13.6335 56.6005 11.248H54.6005ZM52.433 15.3262C50.9023 16.4033 49.0008 16.968 46.6725 16.968V18.968C49.3362 18.968 51.6587 18.3167 53.584 16.9618L52.433 15.3262ZM47.6725 17.968C47.6725 15.8394 47.2252 13.7803 46.337 11.7989L44.512 12.6171C45.2878 14.3477 45.6725 16.1286 45.6725 17.968H47.6725ZM46.353 11.8366C45.5032 9.7121 44.0508 7.98725 42.0365 6.66754L40.9405 8.34046C42.6382 9.45275 43.8098 10.8639 44.496 12.5794L46.353 11.8366ZM42.0562 6.68078C39.9796 5.24863 37.2625 4.584 34.0005 4.584V6.584C37.0105 6.584 39.2854 7.19937 40.9208 8.32721L42.0562 6.68078ZM34.0005 4.584C28.4208 4.584 23.8142 5.7985 20.2687 8.32121L21.4283 9.95079C24.5388 7.7375 28.7002 6.584 34.0005 6.584V4.584ZM20.2718 8.31903C16.8059 10.7656 14.2938 14.3466 12.7026 18.9877L14.5944 19.6363C16.0752 15.3174 18.3631 12.1144 21.4252 9.95297L20.2718 8.31903ZM12.6985 18.9998C11.1839 23.6093 10.4405 29.1612 10.4405 35.632H12.4405C12.4405 29.3028 13.1691 23.9747 14.5985 19.6242L12.6985 18.9998ZM10.4405 35.632C10.4405 42.1062 11.2167 47.6625 12.7986 52.2763L14.6904 51.6277C13.2003 47.2815 12.4405 41.9578 12.4405 35.632H10.4405ZM12.8043 52.2926C14.4671 56.882 17.1173 60.4264 20.7738 62.864L21.8832 61.1999C18.6277 59.0296 16.2219 55.854 14.6847 51.6114L12.8043 52.2926ZM20.7808 62.8687C24.515 65.3129 29.3981 66.488 35.3445 66.488V64.488C29.6429 64.488 25.182 63.3591 21.8762 61.1953L20.7808 62.8687ZM35.3445 66.488C37.2349 66.488 39.0639 66.3902 40.8309 66.1939L40.6101 64.2061C38.9211 64.3938 37.1661 64.488 35.3445 64.488V66.488ZM40.8309 66.1939C42.6017 65.9971 44.1944 65.7001 45.6032 65.2975L45.0538 63.3745C43.7747 63.7399 42.2953 64.0189 40.6101 64.2061L40.8309 66.1939ZM46.3285 64.336V48.88H44.3285V64.336H46.3285ZM46.3285 48.88C46.3285 46.8612 45.9308 45.1661 44.9358 44.0052L43.4172 45.3068C43.9582 45.9379 44.3285 47.0588 44.3285 48.88H46.3285ZM44.9829 44.0646C44.1264 42.8967 42.9479 42.1577 41.5025 41.8534L41.0905 43.8105C42.0771 44.0183 42.8186 44.4953 43.3701 45.2474L44.9829 44.0646ZM41.5641 41.8685C40.3112 41.5204 38.9394 41.352 37.4565 41.352V43.352C38.7896 43.352 39.9778 43.5036 41.0289 43.7955L41.5641 41.8685ZM37.4565 41.352H37.0725V43.352H37.4565V41.352ZM38.0725 42.352V38.32H36.0725V42.352H38.0725ZM37.0725 39.32H62.0325V37.32H37.0725V39.32ZM61.0325 38.32V42.352H63.0325V38.32H61.0325ZM62.0325 41.352H61.6485V43.352H62.0325V41.352ZM61.6485 41.352C60.3446 41.352 59.1227 41.5236 57.9902 41.8775L58.5868 43.7865C59.5023 43.5004 60.5204 43.352 61.6485 43.352V41.352ZM57.9723 41.8833C56.7722 42.2833 55.8017 43.0795 55.0565 44.1973L56.7206 45.3067C57.2553 44.5045 57.8848 44.0207 58.6047 43.7807L57.9723 41.8833ZM55.031 44.2375C54.3126 45.4349 54.0245 47.1631 54.0245 49.264H56.0245C56.0245 47.2689 56.3124 45.9891 56.746 45.2665L55.031 44.2375ZM54.0245 49.264V66.544H56.0245V49.264H54.0245ZM54.6066 65.6355C51.469 67.0788 48.239 68.1762 44.9157 68.9287L45.3573 70.8793C48.818 70.0958 52.18 68.9532 55.4424 67.4525L54.6066 65.6355ZM44.9333 68.9249C41.6199 69.6126 37.9134 69.96 33.8085 69.96V71.96C38.0236 71.96 41.8691 71.6034 45.3397 70.8831L44.9333 68.9249ZM67.4918 70H66.4918V71H67.4918V70ZM67.4918 65.968V64.968H66.4918V65.968H67.4918ZM72.5798 65.584L72.7967 66.5602L72.8156 66.556L72.8342 66.5511L72.5798 65.584ZM75.4598 63.76L74.6789 63.1353L74.6734 63.1422L75.4598 63.76ZM75.5558 7.888L74.7493 8.47936L74.7493 8.47936L75.5558 7.888ZM72.6758 5.96799L72.4081 6.9316L72.4213 6.93507L72.6758 5.96799ZM67.4918 5.488H66.4918V6.488H67.4918V5.488ZM67.4918 1.456V0.455996H66.4918V1.456H67.4918ZM115.876 1.456L116.875 1.42744L116.848 0.455996H115.876V1.456ZM116.356 18.256V19.256H117.385L117.355 18.2274L116.356 18.256ZM111.364 18.256L110.37 18.3715L110.473 19.256H111.364V18.256ZM110.884 14.128L109.888 14.2185L109.889 14.231L109.89 14.2435L110.884 14.128ZM109.732 10.288L108.828 10.7161L108.842 10.7453L108.858 10.7736L109.732 10.288ZM107.044 7.408L106.489 8.24005L106.515 8.25759L106.543 8.27343L107.044 7.408ZM86.3078 6.256V5.256H85.3078V6.256H86.3078ZM86.3078 31.792H85.3078V32.792H86.3078V31.792ZM109.444 31.792H110.444V30.792H109.444V31.792ZM109.444 36.496V37.496H110.444V36.496H109.444ZM86.3078 36.496V35.496H85.3078V36.496H86.3078ZM86.3078 65.2H85.3078V66.2H86.3078V65.2ZM109.732 64.144L110.233 65.0094L110.24 65.0055L110.246 65.0015L109.732 64.144ZM112.612 61.264L111.746 60.763L111.742 60.7706L111.738 60.7784L112.612 61.264ZM113.956 57.328L112.969 57.1673L112.967 57.1801L112.965 57.1929L113.956 57.328ZM114.628 53.2V52.2H113.777L113.641 53.0393L114.628 53.2ZM119.62 53.2L120.619 53.24L120.661 52.2H119.62V53.2ZM118.948 70V71H119.909L119.947 70.04L118.948 70ZM68.4918 70V65.968H66.4918V70H68.4918ZM67.4918 66.968H68.7398V64.968H67.4918V66.968ZM68.7398 66.968C70.2072 66.968 71.5614 66.8347 72.7967 66.5602L72.3628 64.6078C71.2941 64.8453 70.0883 64.968 68.7398 64.968V66.968ZM72.8342 66.5511C74.2378 66.1817 75.3936 65.4628 76.2461 64.3778L74.6734 63.1422C74.1179 63.8492 73.3537 64.3463 72.3253 64.6169L72.8342 66.5511ZM76.2406 64.3847C77.2068 63.1769 77.6118 61.5085 77.6118 59.536H75.6118C75.6118 61.2755 75.2487 62.4231 74.6789 63.1353L76.2406 64.3847ZM77.6118 59.536V12.4H75.6118V59.536H77.6118ZM77.6118 12.4C77.6118 10.2765 77.2541 8.51295 76.3622 7.29663L74.7493 8.47936C75.2654 9.18305 75.6118 10.4275 75.6118 12.4H77.6118ZM76.3622 7.29664C75.5147 6.14097 74.3544 5.3757 72.9302 5.00092L72.4213 6.93507C73.4291 7.20029 74.1888 7.71502 74.7493 8.47936L76.3622 7.29664ZM72.9434 5.00448C71.6869 4.65545 70.2822 4.488 68.7398 4.488V6.488C70.1413 6.488 71.3606 6.64054 72.4081 6.93151L72.9434 5.00448ZM68.7398 4.488H67.4918V6.488H68.7398V4.488ZM68.4918 5.488V1.456H66.4918V5.488H68.4918ZM67.4918 2.456H115.876V0.455996H67.4918V2.456ZM114.876 1.48456L115.356 18.2846L117.355 18.2274L116.875 1.42744L114.876 1.48456ZM116.356 17.256H111.364V19.256H116.356V17.256ZM112.357 18.1405L111.877 14.0125L109.89 14.2435L110.37 18.3715L112.357 18.1405ZM111.88 14.0375C111.74 12.501 111.318 11.0848 110.606 9.80235L108.858 10.7736C109.425 11.7952 109.772 12.939 109.888 14.2185L111.88 14.0375ZM110.635 9.85991C109.969 8.45226 108.928 7.34339 107.545 6.54257L106.543 8.27343C107.591 8.88061 108.343 9.69173 108.828 10.7161L110.635 9.85991ZM107.598 6.57595C106.23 5.66363 104.479 5.256 102.436 5.256V7.256C104.232 7.256 105.554 7.61636 106.489 8.24005L107.598 6.57595ZM102.436 5.256H86.3078V7.256H102.436V5.256ZM85.3078 6.256V31.792H87.3078V6.256H85.3078ZM86.3078 32.792H109.444V30.792H86.3078V32.792ZM108.444 31.792V36.496H110.444V31.792H108.444ZM109.444 35.496H86.3078V37.496H109.444V35.496ZM85.3078 36.496V65.2H87.3078V36.496H85.3078ZM86.3078 66.2H104.836V64.2H86.3078V66.2ZM104.836 66.2C106.984 66.2 108.81 65.8329 110.233 65.0094L109.231 63.2786C108.221 63.8631 106.783 64.2 104.836 64.2V66.2ZM110.246 65.0015C111.656 64.1554 112.75 63.0745 113.486 61.7496L111.738 60.7784C111.194 61.7575 110.367 62.5966 109.217 63.2865L110.246 65.0015ZM113.477 61.765C114.247 60.4351 114.737 58.9986 114.947 57.4631L112.965 57.1929C112.79 58.4734 112.384 59.6609 111.746 60.763L113.477 61.765ZM114.943 57.4887L115.615 53.3607L113.641 53.0393L112.969 57.1673L114.943 57.4887ZM114.628 54.2H119.62V52.2H114.628V54.2ZM118.621 53.16L117.949 69.96L119.947 70.04L120.619 53.24L118.621 53.16ZM118.948 69H67.4918V71H118.948V69ZM127.304 70H126.304V71H127.304V70ZM127.304 65.968V64.968H126.304V65.968H127.304ZM132.488 65.488L132.234 64.5208L132.221 64.5245L132.488 65.488ZM135.368 63.568L136.175 64.1594L136.184 64.1471L136.192 64.1345L135.368 63.568ZM135.272 7.792L134.466 8.38336L134.488 8.41397L134.513 8.44279L135.272 7.792ZM132.392 5.96799L132.125 6.93151L132.155 6.94001L132.186 6.94654L132.392 5.96799ZM127.304 5.488H126.304V6.488H127.304V5.488ZM127.304 1.456V0.455996H126.304V1.456H127.304ZM144.872 1.456L145.712 0.912555L145.416 0.455996H144.872V1.456ZM179.24 54.544L178.401 55.0874L180.24 57.9288V54.544H179.24ZM178.088 7.792L177.282 8.38336L177.304 8.41397L177.329 8.44279L178.088 7.792ZM175.208 5.96799L174.941 6.93151L174.971 6.94001L175.002 6.94654L175.208 5.96799ZM170.12 5.488H169.12V6.488H170.12V5.488ZM170.12 1.456V0.455996H169.12V1.456H170.12ZM194.216 1.456H195.216V0.455996H194.216V1.456ZM194.216 5.488V6.488H195.216V5.488H194.216ZM186.152 7.888L185.346 7.29663L185.346 7.29664L186.152 7.888ZM185.096 70V71H186.096V70H185.096ZM178.28 70L177.442 70.5456L177.738 71H178.28V70ZM142.28 14.704L143.118 14.1584L141.28 11.3352V14.704H142.28ZM143.336 63.568L142.512 64.1345L142.521 64.1471L142.53 64.1594L143.336 63.568ZM146.216 65.488L146.471 64.5209L146.471 64.5209L146.216 65.488ZM151.4 65.968H152.4V64.968H151.4V65.968ZM151.4 70V71H152.4V70H151.4ZM128.304 70V65.968H126.304V70H128.304ZM127.304 66.968H128.552V64.968H127.304V66.968ZM128.552 66.968C130.095 66.968 131.499 66.8005 132.756 66.4515L132.221 64.5245C131.173 64.8155 129.954 64.968 128.552 64.968V66.968ZM132.743 66.4551C134.167 66.0803 135.327 65.315 136.175 64.1594L134.562 62.9766C134.001 63.741 133.242 64.2557 132.234 64.5209L132.743 66.4551ZM136.192 64.1345C137.061 62.8713 137.424 61.1315 137.424 59.056H135.424C135.424 60.9485 135.084 62.2167 134.544 63.0015L136.192 64.1345ZM137.424 59.056V12.016H135.424V59.056H137.424ZM137.424 12.016C137.424 9.99721 137.027 8.30207 136.032 7.14121L134.513 8.44279C135.054 9.07393 135.424 10.1948 135.424 12.016H137.424ZM136.079 7.20064C135.222 6.03271 134.044 5.29374 132.598 4.98944L132.186 6.94654C133.173 7.15425 133.914 7.63129 134.466 8.38336L136.079 7.20064ZM132.66 5.00448C131.407 4.65643 130.035 4.488 128.552 4.488V6.488C129.885 6.488 131.074 6.63956 132.125 6.93151L132.66 5.00448ZM128.552 4.488H127.304V6.488H128.552V4.488ZM128.304 5.488V1.456H126.304V5.488H128.304ZM127.304 2.456H144.872V0.455996H127.304V2.456ZM144.033 1.99944L178.401 55.0874L180.08 54.0006L145.712 0.912555L144.033 1.99944ZM180.24 54.544V12.016H178.24V54.544H180.24ZM180.24 12.016C180.24 9.99721 179.843 8.30207 178.848 7.14121L177.329 8.44279C177.87 9.07393 178.24 10.1948 178.24 12.016H180.24ZM178.895 7.20064C178.038 6.03271 176.86 5.29374 175.414 4.98944L175.002 6.94654C175.989 7.15425 176.73 7.63129 177.282 8.38336L178.895 7.20064ZM175.476 5.00448C174.223 4.65643 172.851 4.488 171.368 4.488V6.488C172.701 6.488 173.89 6.63956 174.941 6.93151L175.476 5.00448ZM171.368 4.488H170.12V6.488H171.368V4.488ZM171.12 5.488V1.456H169.12V5.488H171.12ZM170.12 2.456H194.216V0.455996H170.12V2.456ZM193.216 1.456V5.488H195.216V1.456H193.216ZM194.216 4.488H192.968V6.488H194.216V4.488ZM192.968 4.488C191.484 4.488 190.086 4.65663 188.778 5.00092L189.287 6.93507C190.41 6.63936 191.636 6.488 192.968 6.488V4.488ZM188.778 5.00092C187.354 5.3757 186.193 6.14097 185.346 7.29663L186.959 8.47936C187.519 7.71502 188.279 7.20029 189.287 6.93507L188.778 5.00092ZM185.346 7.29664C184.454 8.51295 184.096 10.2765 184.096 12.4H186.096C186.096 10.4275 186.443 9.18305 186.959 8.47936L185.346 7.29664ZM184.096 12.4V70H186.096V12.4H184.096ZM185.096 69H178.28V71H185.096V69ZM179.118 69.4544L143.118 14.1584L141.442 15.2496L177.442 70.5456L179.118 69.4544ZM141.28 14.704V59.056H143.28V14.704H141.28ZM141.28 59.056C141.28 61.1315 141.644 62.8713 142.512 64.1345L144.16 63.0015C143.621 62.2167 143.28 60.9485 143.28 59.056H141.28ZM142.53 64.1594C143.377 65.315 144.538 66.0803 145.962 66.4551L146.471 64.5209C145.463 64.2557 144.703 63.741 144.143 62.9766L142.53 64.1594ZM145.962 66.4551C147.27 66.7994 148.668 66.968 150.152 66.968V64.968C148.82 64.968 147.594 64.8166 146.471 64.5209L145.962 66.4551ZM150.152 66.968H151.4V64.968H150.152V66.968ZM150.4 65.968V70H152.4V65.968H150.4ZM151.4 69H127.304V71H151.4V69ZM212.235 70L211.974 70.9654L211.981 70.9671L212.235 70ZM206.283 67.216L206.888 66.4198L206.888 66.4198L206.283 67.216ZM202.635 62.896L201.727 63.3151L201.734 63.3292L201.741 63.3432L202.635 62.896ZM202.251 54.064L201.394 53.5495L201.381 53.5711L201.369 53.5934L202.251 54.064ZM204.651 51.856L205.098 52.7504L205.12 52.7395L205.141 52.7276L204.651 51.856ZM208.395 50.992L209.394 50.9433L209.347 49.992H208.395V50.992ZM209.931 58.48L208.996 58.8339L208.999 58.8424L209.931 58.48ZM214.059 64.144L213.438 64.9275L213.446 64.9342L213.455 64.9407L214.059 64.144ZM231.435 63.184L232.079 63.9489L232.085 63.944L232.091 63.939L231.435 63.184ZM233.643 48.208L232.763 48.6821L232.774 48.7026L232.786 48.7225L233.643 48.208ZM229.035 43.6L228.48 44.4321L228.492 44.4396L229.035 43.6ZM220.203 39.184L219.821 40.1083L219.826 40.1103L220.203 39.184ZM212.427 35.248L212.959 34.4014L212.959 34.4014L212.427 35.248ZM206.859 30.64L206.096 31.2859L206.103 31.2943L206.11 31.3026L206.859 30.64ZM203.595 24.976L202.646 25.2922L202.651 25.305L202.655 25.3177L203.595 24.976ZM205.227 8.56L204.411 7.98252L204.408 7.98653L205.227 8.56ZM212.715 2.608L213.109 3.52719L213.118 3.52331L212.715 2.608ZM233.259 2.032L232.895 2.96361L232.903 2.96649L233.259 2.032ZM239.403 6.064L238.64 6.70994L238.646 6.71735L238.652 6.72463L239.403 6.064ZM239.403 15.952L240.009 16.7474L240.014 16.7433L239.403 15.952ZM233.931 17.488H232.931V18.488H233.931V17.488ZM232.875 11.728L231.93 12.054L231.935 12.0684L231.94 12.0826L232.875 11.728ZM229.515 7.12L228.894 7.90404L228.902 7.91018L228.91 7.91616L229.515 7.12ZM216.843 6.64L216.396 5.74557L216.389 5.74886L216.383 5.75224L216.843 6.64ZM212.811 10.48L211.945 9.98024L211.938 9.9914L212.811 10.48ZM212.811 22.768L211.917 23.2152L211.926 23.2346L211.937 23.2536L212.811 22.768ZM217.515 27.472L216.972 28.3116L216.981 28.3173L216.99 28.3228L217.515 27.472ZM226.347 31.792L225.965 32.716L225.97 32.7183L226.347 31.792ZM235.947 36.88L235.37 37.6964L235.381 37.7044L235.392 37.712L235.947 36.88ZM242.091 43.12L241.231 43.6311L241.231 43.6311L242.091 43.12ZM241.323 62.128L242.149 62.6914L242.155 62.6827L241.323 62.128ZM233.067 68.656L232.673 67.7368L232.667 67.7395L233.067 68.656ZM220.587 69.96C217.517 69.96 214.821 69.6465 212.489 69.0329L211.981 70.9671C214.513 71.6335 217.385 71.96 220.587 71.96V69.96ZM212.496 69.0346C210.226 68.4211 208.365 67.5426 206.888 66.4198L205.678 68.0122C207.401 69.3214 209.508 70.2989 211.974 70.9654L212.496 69.0346ZM206.888 66.4198C205.4 65.2889 204.288 63.9651 203.529 62.4488L201.741 63.3432C202.646 65.1549 203.966 66.7111 205.678 68.0122L206.888 66.4198ZM203.543 62.4769C202.84 60.9549 202.483 59.2754 202.483 57.424H200.483C200.483 59.5406 200.894 61.5091 201.727 63.3151L203.543 62.4769ZM202.483 57.424C202.483 56.2792 202.711 55.3262 203.133 54.5346L201.369 53.5934C200.767 54.7218 200.483 56.0088 200.483 57.424H202.483ZM203.108 54.5785C203.584 53.7854 204.24 53.1794 205.098 52.7504L204.204 50.9616C203.014 51.5566 202.07 52.4226 201.394 53.5495L203.108 54.5785ZM205.141 52.7276C205.982 52.2545 207.052 51.992 208.395 51.992V49.992C206.794 49.992 205.368 50.3055 204.161 50.9844L205.141 52.7276ZM207.396 51.0407C207.529 53.7652 208.061 56.3645 208.996 58.8339L210.866 58.1261C210.009 55.8595 209.517 53.4668 209.394 50.9433L207.396 51.0407ZM208.999 58.8424C209.956 61.3044 211.436 63.3403 213.438 64.9275L214.68 63.3605C212.97 62.0037 211.698 60.2636 210.863 58.1176L208.999 58.8424ZM213.455 64.9407C215.529 66.5146 218.193 67.256 221.355 67.256V65.256C218.501 65.256 216.301 64.5894 214.663 63.3473L213.455 64.9407ZM221.355 67.256C225.796 67.256 229.412 66.1945 232.079 63.9489L230.791 62.4191C228.594 64.2695 225.49 65.256 221.355 65.256V67.256ZM232.091 63.939C234.787 61.5972 236.083 58.2866 236.083 54.16H234.083C234.083 57.8414 232.947 60.5468 230.779 62.429L232.091 63.939ZM236.083 54.16C236.083 51.6589 235.576 49.4856 234.5 47.6935L232.786 48.7225C233.63 50.1304 234.083 51.9251 234.083 54.16H236.083ZM234.523 47.7339C233.523 45.8767 231.846 44.2275 229.578 42.7604L228.492 44.4396C230.576 45.7885 231.971 47.2112 232.763 48.6821L234.523 47.7339ZM229.59 42.7679C227.399 41.3072 224.386 39.8058 220.58 38.2577L219.826 40.1103C223.572 41.6342 226.447 43.0768 228.48 44.432L229.59 42.7679ZM220.585 38.2597C217.683 37.0611 215.143 35.7739 212.959 34.4014L211.895 36.0946C214.191 37.5381 216.835 38.8749 219.821 40.1083L220.585 38.2597ZM212.959 34.4014C210.785 33.0347 209.006 31.558 207.608 29.9774L206.11 31.3026C207.656 33.05 209.589 34.6453 211.895 36.0946L212.959 34.4014ZM207.622 29.9941C206.293 28.423 205.264 26.6387 204.535 24.6343L202.655 25.3177C203.462 27.5373 204.609 29.529 206.096 31.2859L207.622 29.9941ZM204.544 24.6598C203.879 22.6661 203.539 20.4072 203.539 17.872H201.539C201.539 20.5848 201.903 23.0619 202.646 25.2922L204.544 24.6598ZM203.539 17.872C203.539 14.3938 204.391 11.4986 206.046 9.13346L204.408 7.98653C202.479 10.7414 201.539 14.0542 201.539 17.872H203.539ZM206.043 9.13746C207.786 6.67356 210.132 4.80309 213.109 3.52714L212.321 1.68885C209.026 3.1009 206.38 5.19843 204.411 7.98253L206.043 9.13746ZM213.118 3.52331C216.173 2.17908 219.649 1.496 223.563 1.496V-0.504004C219.413 -0.504004 215.657 0.220915 212.312 1.69268L213.118 3.52331ZM223.563 1.496C227.321 1.496 230.421 1.99796 232.895 2.96358L233.623 1.10042C230.849 0.018034 227.485 -0.504004 223.563 -0.504004V1.496ZM232.903 2.96649C235.482 3.94889 237.37 5.20976 238.64 6.70994L240.166 5.41806C238.62 3.59024 236.412 2.16311 233.615 1.09751L232.903 2.96649ZM238.652 6.72463C239.925 8.17088 240.515 9.67103 240.515 11.248H242.515C242.515 9.11296 241.697 7.15711 240.154 5.40337L238.652 6.72463ZM240.515 11.248C240.515 13.0393 239.915 14.2923 238.792 15.1607L240.014 16.7433C241.707 15.4357 242.515 13.5527 242.515 11.248H240.515ZM238.797 15.1566C237.681 16.007 236.095 16.488 233.931 16.488V18.488C236.375 18.488 238.437 17.945 240.009 16.7474L238.797 15.1566ZM234.931 17.488C234.931 15.3828 234.557 13.3426 233.81 11.3733L231.94 12.0826C232.601 13.8254 232.931 15.6252 232.931 17.488H234.931ZM233.82 11.402C233.114 9.35445 231.874 7.65647 230.12 6.32383L228.91 7.91616C230.356 9.01553 231.356 10.3895 231.93 12.054L233.82 11.402ZM230.136 6.33595C228.367 4.93609 226.009 4.296 223.179 4.296V6.296C225.725 6.296 227.591 6.87191 228.894 7.90404L230.136 6.33595ZM223.179 4.296C220.624 4.296 218.353 4.76685 216.396 5.74557L217.29 7.53442C218.917 6.72115 220.87 6.296 223.179 6.296V4.296ZM216.383 5.75224C214.487 6.73494 213.002 8.14852 211.945 9.98028L213.677 10.9797C214.54 9.48348 215.743 8.33706 217.303 7.52775L216.383 5.75224ZM211.938 9.9914C210.942 11.7704 210.467 13.8665 210.467 16.24H212.467C212.467 14.1335 212.888 12.3896 213.684 10.9686L211.938 9.9914ZM210.467 16.24C210.467 18.9134 210.935 21.2512 211.917 23.2152L213.705 22.3208C212.895 20.7007 212.467 18.6866 212.467 16.24H210.467ZM211.937 23.2536C212.997 25.1626 214.699 26.8413 216.972 28.3116L218.058 26.6324C215.979 25.2867 214.545 23.8294 213.685 22.2824L211.937 23.2536ZM216.99 28.3228C219.229 29.7062 222.228 31.1697 225.965 32.716L226.729 30.868C223.042 29.3423 220.153 27.9258 218.04 26.6212L216.99 28.3228ZM225.97 32.7183C229.693 34.2328 232.822 35.8945 235.37 37.6964L236.524 36.0636C233.824 34.1535 230.553 32.4232 226.724 30.8657L225.97 32.7183ZM235.392 37.712C237.977 39.4354 239.912 41.4118 241.231 43.6311L242.951 42.6089C241.454 40.0922 239.293 37.9086 236.502 36.0479L235.392 37.712ZM241.231 43.6311C242.53 45.8151 243.203 48.4784 243.203 51.664H245.203C245.203 48.1936 244.468 45.1609 242.951 42.6089L241.231 43.6311ZM243.203 51.664C243.203 55.5995 242.283 58.8858 240.491 61.5733L242.155 62.6827C244.203 59.6102 245.203 55.9205 245.203 51.664H243.203ZM240.497 61.5647C238.699 64.2016 236.108 66.2648 232.673 67.7369L233.461 69.5751C237.194 67.9752 240.107 65.6864 242.149 62.6913L240.497 61.5647ZM232.667 67.7395C229.301 69.2085 225.283 69.96 220.587 69.96V71.96C225.491 71.96 229.793 71.1755 233.467 69.5725L232.667 67.7395ZM252.742 70H251.742V71H252.742V70ZM252.742 65.968V64.968H251.742V65.968H252.742ZM257.926 65.488L257.671 64.5208L257.658 64.5245L257.926 65.488ZM260.806 63.568L261.612 64.1594L261.621 64.1471L261.63 64.1345L260.806 63.568ZM260.71 7.792L259.903 8.38336L259.926 8.41397L259.95 8.44279L260.71 7.792ZM257.83 5.96799L257.562 6.93151L257.593 6.94001L257.624 6.94654L257.83 5.96799ZM252.742 5.488H251.742V6.488H252.742V5.488ZM252.742 1.456V0.455996H251.742V1.456H252.742ZM280.678 1.456H281.678V0.455996H280.678V1.456ZM280.678 5.488V6.488H281.678V5.488H280.678ZM272.614 7.888L273.42 8.47936L273.42 8.47936L272.614 7.888ZM271.558 31.792H270.558V32.792H271.558V31.792ZM302.758 31.792V32.792H303.758V31.792H302.758ZM301.702 7.888L302.508 7.29664L302.508 7.29663L301.702 7.888ZM298.822 5.96799L298.554 6.9316L298.567 6.93507L298.822 5.96799ZM293.638 5.488H292.638V6.488H293.638V5.488ZM293.638 1.456V0.455996H292.638V1.456H293.638ZM321.574 1.456H322.574V0.455996H321.574V1.456ZM321.574 5.488V6.488H322.574V5.488H321.574ZM313.51 7.888L312.703 7.29663L312.703 7.29664L313.51 7.888ZM313.51 63.76L312.703 64.3514L312.726 64.382L312.75 64.4108L313.51 63.76ZM316.39 65.584L316.122 66.5475L316.153 66.556L316.184 66.5625L316.39 65.584ZM321.574 65.968H322.574V64.968H321.574V65.968ZM321.574 70V71H322.574V70H321.574ZM293.638 70H292.638V71H293.638V70ZM293.638 65.968V64.968H292.638V65.968H293.638ZM298.822 65.488L298.567 64.5208L298.554 64.5245L298.822 65.488ZM301.702 63.568L302.508 64.1594L302.517 64.1471L302.526 64.1345L301.702 63.568ZM302.758 36.592H303.758V35.592H302.758V36.592ZM271.558 36.592V35.592H270.558V36.592H271.558ZM272.614 63.568L271.79 64.1345L271.798 64.1471L271.807 64.1594L272.614 63.568ZM280.678 65.968H281.678V64.968H280.678V65.968ZM280.678 70V71H281.678V70H280.678ZM253.742 70V65.968H251.742V70H253.742ZM252.742 66.968H253.99V64.968H252.742V66.968ZM253.99 66.968C255.532 66.968 256.937 66.8005 258.193 66.4515L257.658 64.5245C256.611 64.8155 255.391 64.968 253.99 64.968V66.968ZM258.18 66.4551C259.604 66.0803 260.765 65.315 261.612 64.1594L259.999 62.9766C259.439 63.741 258.679 64.2557 257.671 64.5209L258.18 66.4551ZM261.63 64.1345C262.498 62.8713 262.862 61.1315 262.862 59.056H260.862C260.862 60.9485 260.521 62.2167 259.982 63.0015L261.63 64.1345ZM262.862 59.056V12.016H260.862V59.056H262.862ZM262.862 12.016C262.862 9.99721 262.464 8.30207 261.469 7.14121L259.95 8.44279C260.491 9.07393 260.862 10.1948 260.862 12.016H262.862ZM261.516 7.20064C260.66 6.03271 259.481 5.29374 258.036 4.98944L257.624 6.94654C258.61 7.15425 259.352 7.63129 259.903 8.38336L261.516 7.20064ZM258.097 5.00448C256.844 4.65643 255.473 4.488 253.99 4.488V6.488C255.323 6.488 256.511 6.63956 257.562 6.93151L258.097 5.00448ZM253.99 4.488H252.742V6.488H253.99V4.488ZM253.742 5.488V1.456H251.742V5.488H253.742ZM252.742 2.456H280.678V0.455996H252.742V2.456ZM279.678 1.456V5.488H281.678V1.456H279.678ZM280.678 4.488H279.43V6.488H280.678V4.488ZM279.43 4.488C277.946 4.488 276.548 4.65663 275.239 5.00092L275.748 6.93507C276.872 6.63936 278.098 6.488 279.43 6.488V4.488ZM275.239 5.00092C273.815 5.3757 272.655 6.14097 271.807 7.29664L273.42 8.47936C273.981 7.71502 274.74 7.20029 275.748 6.93507L275.239 5.00092ZM271.807 7.29663C270.915 8.51295 270.558 10.2765 270.558 12.4H272.558C272.558 10.4275 272.904 9.18305 273.42 8.47936L271.807 7.29663ZM270.558 12.4V31.792H272.558V12.4H270.558ZM271.558 32.792H302.758V30.792H271.558V32.792ZM303.758 31.792V12.4H301.758V31.792H303.758ZM303.758 12.4C303.758 10.2765 303.4 8.51295 302.508 7.29664L300.895 8.47936C301.411 9.18305 301.758 10.4275 301.758 12.4H303.758ZM302.508 7.29663C301.661 6.14097 300.5 5.3757 299.076 5.00092L298.567 6.93507C299.575 7.20029 300.335 7.71502 300.895 8.47936L302.508 7.29663ZM299.089 5.00448C297.833 4.65545 296.428 4.488 294.886 4.488V6.488C296.287 6.488 297.507 6.64054 298.554 6.93151L299.089 5.00448ZM294.886 4.488H293.638V6.488H294.886V4.488ZM294.638 5.488V1.456H292.638V5.488H294.638ZM293.638 2.456H321.574V0.455996H293.638V2.456ZM320.574 1.456V5.488H322.574V1.456H320.574ZM321.574 4.488H320.326V6.488H321.574V4.488ZM320.326 4.488C318.842 4.488 317.444 4.65663 316.135 5.00092L316.644 6.93507C317.768 6.63936 318.994 6.488 320.326 6.488V4.488ZM316.135 5.00092C314.711 5.3757 313.551 6.14097 312.703 7.29663L314.316 8.47936C314.877 7.71502 315.636 7.20029 316.644 6.93507L316.135 5.00092ZM312.703 7.29664C311.811 8.51295 311.454 10.2765 311.454 12.4H313.454C313.454 10.4275 313.8 9.18305 314.316 8.47936L312.703 7.29664ZM311.454 12.4V59.536H313.454V12.4H311.454ZM311.454 59.536C311.454 61.4937 311.821 63.1479 312.703 64.3514L314.316 63.1686C313.791 62.4521 313.454 61.2903 313.454 59.536H311.454ZM312.75 64.4108C313.649 65.4596 314.782 66.1751 316.122 66.5475L316.657 64.6205C315.694 64.3529 314.906 63.8524 314.269 63.1092L312.75 64.4108ZM316.184 66.5625C317.476 66.8345 318.858 66.968 320.326 66.968V64.968C318.978 64.968 317.736 64.8455 316.596 64.6054L316.184 66.5625ZM320.326 66.968H321.574V64.968H320.326V66.968ZM320.574 65.968V70H322.574V65.968H320.574ZM321.574 69H293.638V71H321.574V69ZM294.638 70V65.968H292.638V70H294.638ZM293.638 66.968H294.886V64.968H293.638V66.968ZM294.886 66.968C296.428 66.968 297.833 66.8005 299.089 66.4515L298.554 64.5245C297.507 64.8155 296.287 64.968 294.886 64.968V66.968ZM299.076 66.4551C300.5 66.0803 301.661 65.315 302.508 64.1594L300.895 62.9766C300.335 63.741 299.575 64.2557 298.567 64.5209L299.076 66.4551ZM302.526 64.1345C303.394 62.8713 303.758 61.1315 303.758 59.056H301.758C301.758 60.9485 301.417 62.2167 300.878 63.0015L302.526 64.1345ZM303.758 59.056V36.592H301.758V59.056H303.758ZM302.758 35.592H271.558V37.592H302.758V35.592ZM270.558 36.592V59.056H272.558V36.592H270.558ZM270.558 59.056C270.558 61.1315 270.921 62.8713 271.79 64.1345L273.438 63.0015C272.898 62.2167 272.558 60.9485 272.558 59.056H270.558ZM271.807 64.1594C272.655 65.315 273.815 66.0803 275.239 66.4551L275.748 64.5209C274.74 64.2557 273.981 63.741 273.42 62.9766L271.807 64.1594ZM275.239 66.4551C276.548 66.7994 277.946 66.968 279.43 66.968V64.968C278.098 64.968 276.872 64.8166 275.748 64.5209L275.239 66.4551ZM279.43 66.968H280.678V64.968H279.43V66.968ZM279.678 65.968V70H281.678V65.968H279.678ZM280.678 69H252.742V71H280.678V69ZM328.867 70H327.867V71H328.867V70ZM328.867 65.968V64.968H327.867V65.968H328.867ZM334.051 65.488L333.796 64.5208L333.783 64.5245L334.051 65.488ZM336.931 63.568L337.737 64.1594L337.746 64.1471L337.755 64.1345L336.931 63.568ZM336.931 7.888L336.124 8.47936L336.124 8.47936L336.931 7.888ZM334.051 5.96799L333.783 6.9316L333.796 6.93507L334.051 5.96799ZM328.867 5.488H327.867V6.488H328.867V5.488ZM328.867 1.456V0.455996H327.867V1.456H328.867ZM356.803 1.456H357.803V0.455996H356.803V1.456ZM356.803 5.488V6.488H357.803V5.488H356.803ZM348.739 7.888L349.545 8.47936L349.545 8.47936L348.739 7.888ZM348.739 63.568L347.915 64.1345L347.923 64.1471L347.932 64.1594L348.739 63.568ZM356.803 65.968H357.803V64.968H356.803V65.968ZM356.803 70V71H357.803V70H356.803ZM329.867 70V65.968H327.867V70H329.867ZM328.867 66.968H330.115V64.968H328.867V66.968ZM330.115 66.968C331.657 66.968 333.062 66.8005 334.318 66.4515L333.783 64.5245C332.736 64.8155 331.516 64.968 330.115 64.968V66.968ZM334.305 66.4551C335.729 66.0803 336.89 65.315 337.737 64.1594L336.124 62.9766C335.564 63.741 334.804 64.2557 333.796 64.5209L334.305 66.4551ZM337.755 64.1345C338.623 62.8713 338.987 61.1315 338.987 59.056H336.987C336.987 60.9485 336.646 62.2167 336.107 63.0015L337.755 64.1345ZM338.987 59.056V12.4H336.987V59.056H338.987ZM338.987 12.4C338.987 10.2765 338.629 8.51295 337.737 7.29663L336.124 8.47936C336.64 9.18305 336.987 10.4275 336.987 12.4H338.987ZM337.737 7.29664C336.89 6.14097 335.729 5.3757 334.305 5.00092L333.796 6.93507C334.804 7.20029 335.564 7.71502 336.124 8.47936L337.737 7.29664ZM334.318 5.00448C333.062 4.65545 331.657 4.488 330.115 4.488V6.488C331.516 6.488 332.736 6.64054 333.783 6.93151L334.318 5.00448ZM330.115 4.488H328.867V6.488H330.115V4.488ZM329.867 5.488V1.456H327.867V5.488H329.867ZM328.867 2.456H356.803V0.455996H328.867V2.456ZM355.803 1.456V5.488H357.803V1.456H355.803ZM356.803 4.488H355.555V6.488H356.803V4.488ZM355.555 4.488C354.071 4.488 352.673 4.65663 351.364 5.00092L351.873 6.93507C352.997 6.63936 354.223 6.488 355.555 6.488V4.488ZM351.364 5.00092C349.94 5.3757 348.78 6.14097 347.932 7.29664L349.545 8.47936C350.106 7.71502 350.865 7.20029 351.873 6.93507L351.364 5.00092ZM347.932 7.29663C347.04 8.51295 346.683 10.2765 346.683 12.4H348.683C348.683 10.4275 349.029 9.18305 349.545 8.47936L347.932 7.29663ZM346.683 12.4V59.056H348.683V12.4H346.683ZM346.683 59.056C346.683 61.1315 347.046 62.8713 347.915 64.1345L349.563 63.0015C349.023 62.2167 348.683 60.9485 348.683 59.056H346.683ZM347.932 64.1594C348.78 65.315 349.94 66.0803 351.364 66.4551L351.873 64.5209C350.865 64.2557 350.106 63.741 349.545 62.9766L347.932 64.1594ZM351.364 66.4551C352.673 66.7994 354.071 66.968 355.555 66.968V64.968C354.223 64.968 352.997 64.8166 351.873 64.5209L351.364 66.4551ZM355.555 66.968H356.803V64.968H355.555V66.968ZM355.803 65.968V70H357.803V65.968H355.803ZM356.803 69H328.867V71H356.803V69ZM364.117 70H363.117V71H364.117V70ZM364.117 65.968V64.968H363.117V65.968H364.117ZM369.301 65.488L369.046 64.5208L369.033 64.5245L369.301 65.488ZM372.181 63.568L372.987 64.1594L372.996 64.1471L373.005 64.1345L372.181 63.568ZM372.085 7.792L371.278 8.38336L371.301 8.41397L371.325 8.44279L372.085 7.792ZM369.205 5.96799L368.937 6.93151L368.968 6.94001L368.999 6.94654L369.205 5.96799ZM364.117 5.488H363.117V6.488H364.117V5.488ZM364.117 1.456V0.455996H363.117V1.456H364.117ZM381.685 1.456L382.524 0.912555L382.229 0.455996H381.685V1.456ZM416.053 54.544L415.213 55.0874L417.053 57.9288V54.544H416.053ZM414.901 7.792L414.094 8.38336L414.117 8.41397L414.141 8.44279L414.901 7.792ZM412.021 5.96799L411.753 6.93151L411.784 6.94001L411.815 6.94654L412.021 5.96799ZM406.933 5.488H405.933V6.488H406.933V5.488ZM406.933 1.456V0.455996H405.933V1.456H406.933ZM431.029 1.456H432.029V0.455996H431.029V1.456ZM431.029 5.488V6.488H432.029V5.488H431.029ZM422.965 7.888L422.158 7.29663L422.158 7.29664L422.965 7.888ZM421.909 70V71H422.909V70H421.909ZM415.093 70L414.255 70.5456L414.551 71H415.093V70ZM379.093 14.704L379.931 14.1584L378.093 11.3352V14.704H379.093ZM380.149 63.568L379.325 64.1345L379.333 64.1471L379.342 64.1594L380.149 63.568ZM383.029 65.488L383.283 64.5209L383.283 64.5209L383.029 65.488ZM388.213 65.968H389.213V64.968H388.213V65.968ZM388.213 70V71H389.213V70H388.213ZM365.117 70V65.968H363.117V70H365.117ZM364.117 66.968H365.365V64.968H364.117V66.968ZM365.365 66.968C366.907 66.968 368.312 66.8005 369.568 66.4515L369.033 64.5245C367.986 64.8155 366.766 64.968 365.365 64.968V66.968ZM369.555 66.4551C370.979 66.0803 372.14 65.315 372.987 64.1594L371.374 62.9766C370.814 63.741 370.054 64.2557 369.046 64.5209L369.555 66.4551ZM373.005 64.1345C373.873 62.8713 374.237 61.1315 374.237 59.056H372.237C372.237 60.9485 371.896 62.2167 371.357 63.0015L373.005 64.1345ZM374.237 59.056V12.016H372.237V59.056H374.237ZM374.237 12.016C374.237 9.99721 373.839 8.30207 372.844 7.14121L371.325 8.44279C371.866 9.07393 372.237 10.1948 372.237 12.016H374.237ZM372.891 7.20064C372.035 6.03271 370.856 5.29374 369.411 4.98944L368.999 6.94654C369.985 7.15425 370.727 7.63129 371.278 8.38336L372.891 7.20064ZM369.472 5.00448C368.219 4.65643 366.848 4.488 365.365 4.488V6.488C366.698 6.488 367.886 6.63956 368.937 6.93151L369.472 5.00448ZM365.365 4.488H364.117V6.488H365.365V4.488ZM365.117 5.488V1.456H363.117V5.488H365.117ZM364.117 2.456H381.685V0.455996H364.117V2.456ZM380.845 1.99944L415.213 55.0874L416.892 54.0006L382.524 0.912555L380.845 1.99944ZM417.053 54.544V12.016H415.053V54.544H417.053ZM417.053 12.016C417.053 9.99721 416.655 8.30207 415.66 7.14121L414.141 8.44279C414.682 9.07393 415.053 10.1948 415.053 12.016H417.053ZM415.707 7.20064C414.851 6.03271 413.672 5.29374 412.227 4.98944L411.815 6.94654C412.801 7.15425 413.543 7.63129 414.094 8.38336L415.707 7.20064ZM412.288 5.00448C411.035 4.65643 409.664 4.488 408.181 4.488V6.488C409.514 6.488 410.702 6.63956 411.753 6.93151L412.288 5.00448ZM408.181 4.488H406.933V6.488H408.181V4.488ZM407.933 5.488V1.456H405.933V5.488H407.933ZM406.933 2.456H431.029V0.455996H406.933V2.456ZM430.029 1.456V5.488H432.029V1.456H430.029ZM431.029 4.488H429.781V6.488H431.029V4.488ZM429.781 4.488C428.297 4.488 426.899 4.65663 425.59 5.00092L426.099 6.93507C427.223 6.63936 428.449 6.488 429.781 6.488V4.488ZM425.59 5.00092C424.166 5.3757 423.006 6.14097 422.158 7.29663L423.771 8.47936C424.332 7.71502 425.091 7.20029 426.099 6.93507L425.59 5.00092ZM422.158 7.29664C421.266 8.51295 420.909 10.2765 420.909 12.4H422.909C422.909 10.4275 423.255 9.18305 423.771 8.47936L422.158 7.29664ZM420.909 12.4V70H422.909V12.4H420.909ZM421.909 69H415.093V71H421.909V69ZM415.931 69.4544L379.931 14.1584L378.255 15.2496L414.255 70.5456L415.931 69.4544ZM378.093 14.704V59.056H380.093V14.704H378.093ZM378.093 59.056C378.093 61.1315 378.456 62.8713 379.325 64.1345L380.973 63.0015C380.433 62.2167 380.093 60.9485 380.093 59.056H378.093ZM379.342 64.1594C380.19 65.315 381.35 66.0803 382.774 66.4551L383.283 64.5209C382.275 64.2557 381.516 63.741 380.955 62.9766L379.342 64.1594ZM382.774 66.4551C384.083 66.7994 385.481 66.968 386.965 66.968V64.968C385.633 64.968 384.407 64.8166 383.283 64.5209L382.774 66.4551ZM386.965 66.968H388.213V64.968H386.965V66.968ZM387.213 65.968V70H389.213V65.968H387.213ZM388.213 69H364.117V71H388.213V69Z" fill="#fff"/>
</svg>
