<svg width="187" height="48" viewBox="0 0 187 48" fill="none" xmlns="http://www.w3.org/2000/svg">
<path d="M0.173 47H-0.827V48H0.173V47ZM0.173 43.864V42.864H-0.827V43.864H0.173ZM4.205 43.608L4.47972 44.5695L4.51085 44.5606L4.54134 44.5497L4.205 43.608ZM5.613 42.392L4.75551 41.8775L4.75003 41.8866L4.74476 41.8959L5.613 42.392ZM5.613 5.912L4.74476 6.40814L4.75771 6.4308L4.77182 6.45276L5.613 5.912ZM4.205 4.76L3.86866 5.70174L3.89915 5.71263L3.93028 5.72152L4.205 4.76ZM0.173 4.44H-0.827V5.44H0.173V4.44ZM0.173 1.304V0.303997H-0.827V1.304H0.173ZM20.909 1.304H21.909V0.303997H20.909V1.304ZM20.909 4.44V5.44H21.909V4.44H20.909ZM16.877 4.76L17.1517 5.72152L17.1726 5.71555L17.1932 5.70868L16.877 4.76ZM15.469 5.912L16.3372 6.40814L16.3372 6.40814L15.469 5.912ZM15.469 42.392L14.5866 42.8626L14.5935 42.8755L14.6008 42.8881L15.469 42.392ZM16.877 43.608L16.5407 44.5497L16.5795 44.5636L16.6193 44.5742L16.877 43.608ZM20.909 43.864H21.909V42.864H20.909V43.864ZM20.909 47V48H21.909V47H20.909ZM1.173 47V43.864H-0.827V47H1.173ZM0.173 44.864H2.157V42.864H0.173V44.864ZM2.157 44.864C2.99695 44.864 3.77491 44.7709 4.47972 44.5695L3.93028 42.6465C3.44043 42.7864 2.85305 42.864 2.157 42.864V44.864ZM4.54134 44.5497C5.38318 44.2491 6.03229 43.6738 6.48124 42.8881L4.74476 41.8959C4.51105 42.3049 4.22149 42.5402 3.86866 42.6663L4.54134 44.5497ZM6.47049 42.9065C6.99041 42.04 7.189 40.8883 7.189 39.576H5.189C5.189 40.7384 5.00359 41.464 4.75551 41.8775L6.47049 42.9065ZM7.189 39.576V8.728H5.189V39.576H7.189ZM7.189 8.728C7.189 7.38936 6.99585 6.21384 6.45418 5.37124L4.77182 6.45276C4.99815 6.80483 5.189 7.50664 5.189 8.728H7.189ZM6.48124 5.41586C6.0256 4.61848 5.35605 4.04885 4.47972 3.79847L3.93028 5.72152C4.24862 5.81248 4.51774 6.01085 4.74476 6.40814L6.48124 5.41586ZM4.54134 3.81826C3.81602 3.55921 3.01621 3.44 2.157 3.44V5.44C2.83379 5.44 3.39932 5.53412 3.86866 5.70174L4.54134 3.81826ZM2.157 3.44H0.173V5.44H2.157V3.44ZM1.173 4.44V1.304H-0.827V4.44H1.173ZM0.173 2.304H20.909V0.303997H0.173V2.304ZM19.909 1.304V4.44H21.909V1.304H19.909ZM20.909 3.44H18.925V5.44H20.909V3.44ZM18.925 3.44C18.1003 3.44 17.3101 3.56153 16.5608 3.81131L17.1932 5.70868C17.7239 5.5318 18.2991 5.44 18.925 5.44V3.44ZM16.6023 3.79847C15.726 4.04885 15.0564 4.61848 14.6008 5.41586L16.3372 6.40814C16.5643 6.01085 16.8334 5.81248 17.1517 5.72152L16.6023 3.79847ZM14.6008 5.41586C14.1268 6.24535 13.957 7.40033 13.957 8.728H15.957C15.957 7.49567 16.1286 6.77331 16.3372 6.40814L14.6008 5.41586ZM13.957 8.728V39.576H15.957V8.728H13.957ZM13.957 39.576C13.957 40.8764 14.1315 42.0091 14.5866 42.8626L16.3514 41.9214C16.1239 41.4949 15.957 40.7503 15.957 39.576H13.957ZM14.6008 42.8881C15.0497 43.6738 15.6988 44.2491 16.5407 44.5497L17.2133 42.6663C16.8605 42.5402 16.571 42.3049 16.3372 41.8959L14.6008 42.8881ZM16.6193 44.5742C17.3509 44.7693 18.1209 44.864 18.925 44.864V42.864C18.2785 42.864 17.6831 42.788 17.1347 42.6418L16.6193 44.5742ZM18.925 44.864H20.909V42.864H18.925V44.864ZM19.909 43.864V47H21.909V43.864H19.909ZM20.909 46H0.173V48H20.909V46ZM24.9855 47H23.9855V48H24.9855V47ZM24.9855 43.864V42.864H23.9855V43.864H24.9855ZM29.0175 43.608L29.2922 44.5695L29.3233 44.5606L29.3538 44.5497L29.0175 43.608ZM30.4255 42.392L29.568 41.8775L29.5625 41.8866L29.5573 41.8959L30.4255 42.392ZM30.4255 5.848L29.5843 6.38876L29.5936 6.40315L29.6033 6.41721L30.4255 5.848ZM24.9855 4.44H23.9855V5.44H24.9855V4.44ZM24.9855 1.304V0.303997H23.9855V1.304H24.9855ZM56.6655 4.952L56.0004 5.69876L56.0066 5.70424L56.0128 5.70961L56.6655 4.952ZM59.8015 20.312L58.8698 19.9484L58.8652 19.9609L59.8015 20.312ZM56.6655 24.984L57.3616 25.7019L57.362 25.7016L56.6655 24.984ZM51.0335 28.248L51.3497 29.1967L51.36 29.1932L51.0335 28.248ZM39.7055 29.4V28.4H38.7055V29.4H39.7055ZM40.2815 42.52L39.4403 43.0608L39.4496 43.0751L39.4593 43.0892L40.2815 42.52ZM41.7535 43.608L41.4788 44.5695L41.4873 44.572L41.4958 44.5742L41.7535 43.608ZM47.0015 43.864H48.0015V42.864H47.0015V43.864ZM47.0015 47V48H48.0015V47H47.0015ZM46.2975 25.368L46.6035 26.32L46.6135 26.3168L46.6235 26.3134L46.2975 25.368ZM49.3055 23.448L50.0488 24.117L50.0488 24.117L49.3055 23.448ZM50.9695 20.12L51.9397 20.3625L51.9414 20.3556L50.9695 20.12ZM50.6495 9.304L51.5869 8.95581L51.5869 8.95581L50.6495 9.304ZM47.8975 5.976L47.3701 6.82564L47.3871 6.83617L47.4045 6.84602L47.8975 5.976ZM39.7055 4.824V3.824H38.7055V4.824H39.7055ZM39.7055 25.944H38.7055V26.944H39.7055V25.944ZM25.9855 47V43.864H23.9855V47H25.9855ZM24.9855 44.864H26.9695V42.864H24.9855V44.864ZM26.9695 44.864C27.8094 44.864 28.5874 44.7709 29.2922 44.5695L28.7428 42.6465C28.2529 42.7864 27.6656 42.864 26.9695 42.864V44.864ZM29.3538 44.5497C30.1957 44.2491 30.8448 43.6738 31.2937 42.8881L29.5573 41.8959C29.3235 42.3049 29.034 42.5402 28.6812 42.6663L29.3538 44.5497ZM31.283 42.9065C31.8029 42.04 32.0015 40.8883 32.0015 39.576H30.0015C30.0015 40.7384 29.8161 41.464 29.568 41.8775L31.283 42.9065ZM32.0015 39.576V8.472H30.0015V39.576H32.0015ZM32.0015 8.472C32.0015 7.21166 31.8068 6.08632 31.2477 5.27879L29.6033 6.41721C29.8122 6.71901 30.0015 7.343 30.0015 8.472H32.0015ZM31.2667 5.30724C30.7713 4.53665 30.0926 3.98143 29.2282 3.73448L28.6788 5.65752C29.0091 5.7519 29.3117 5.96468 29.5843 6.38876L31.2667 5.30724ZM29.2282 3.73448C28.5281 3.53443 27.7726 3.44 26.9695 3.44V5.44C27.6171 5.44 28.1843 5.51623 28.6788 5.65752L29.2282 3.73448ZM26.9695 3.44H24.9855V5.44H26.9695V3.44ZM25.9855 4.44V1.304H23.9855V4.44H25.9855ZM24.9855 2.304H43.9935V0.303997H24.9855V2.304ZM43.9935 2.304C49.5976 2.304 53.532 3.50034 56.0004 5.69876L57.3306 4.20523C54.3377 1.53966 49.824 0.303997 43.9935 0.303997V2.304ZM56.0128 5.70961C58.5329 7.88082 59.8255 10.8716 59.8255 14.808H61.8255C61.8255 10.3817 60.3447 6.80185 57.3182 4.19439L56.0128 5.70961ZM59.8255 14.808C59.8255 16.6065 59.5063 18.3176 58.8699 19.9485L60.7331 20.6755C61.462 18.8077 61.8255 16.8495 61.8255 14.808H59.8255ZM58.8652 19.9609C58.2825 21.5147 57.3253 22.95 55.969 24.2664L57.362 25.7016C58.907 24.202 60.0405 22.5226 60.7378 20.6631L58.8652 19.9609ZM55.9694 24.2661C54.6905 25.5062 52.9509 26.5276 50.707 27.3028L51.36 29.1932C53.8094 28.347 55.8245 27.1925 57.3616 25.7019L55.9694 24.2661ZM50.7173 27.2993C48.5452 28.0233 45.8429 28.4 42.5855 28.4V30.4C45.9841 30.4 48.9138 30.0087 51.3497 29.1967L50.7173 27.2993ZM42.5855 28.4H39.7055V30.4H42.5855V28.4ZM38.7055 29.4V39.896H40.7055V29.4H38.7055ZM38.7055 39.896C38.7055 41.1317 38.9066 42.2305 39.4403 43.0608L41.1227 41.9792C40.8884 41.6148 40.7055 40.9643 40.7055 39.896H38.7055ZM39.4593 43.0892C39.9628 43.8165 40.6394 44.3297 41.4788 44.5695L42.0282 42.6465C41.6729 42.545 41.3682 42.3328 41.1037 41.9508L39.4593 43.0892ZM41.4958 44.5742C42.2274 44.7693 42.9974 44.864 43.8015 44.864V42.864C43.155 42.864 42.5596 42.788 42.0112 42.6418L41.4958 44.5742ZM43.8015 44.864H47.0015V42.864H43.8015V44.864ZM46.0015 43.864V47H48.0015V43.864H46.0015ZM47.0015 46H24.9855V48H47.0015V46ZM41.9455 26.944C43.7213 26.944 45.2816 26.7449 46.6035 26.32L45.9915 24.416C44.9241 24.7591 43.583 24.944 41.9455 24.944V26.944ZM46.6235 26.3134C47.9984 25.8393 49.1523 25.1131 50.0488 24.117L48.5622 22.779C47.9227 23.4896 47.0713 24.0434 45.9715 24.4226L46.6235 26.3134ZM50.0488 24.117C50.9481 23.1177 51.5675 21.8511 51.9396 20.3625L49.9994 19.8775C49.6888 21.1196 49.1989 22.0716 48.5622 22.779L50.0488 24.117ZM51.9414 20.3556C52.3066 18.8487 52.4815 17.0801 52.4815 15.064H50.4815C50.4815 16.9733 50.315 18.5753 49.9977 19.8844L51.9414 20.3556ZM52.4815 15.064C52.4815 12.6495 52.1976 10.6 51.5869 8.95581L49.7121 9.65218C50.2107 10.9946 50.4815 12.7852 50.4815 15.064H52.4815ZM51.5869 8.95581C50.9575 7.26128 49.893 5.95741 48.3905 5.10598L47.4045 6.84602C48.462 7.44525 49.2321 8.36005 49.7121 9.65218L51.5869 8.95581ZM48.4249 5.12636C46.9746 4.22617 45.1056 3.824 42.9055 3.824V5.824C44.8867 5.824 46.3458 6.18983 47.3701 6.82564L48.4249 5.12636ZM42.9055 3.824H39.7055V5.824H42.9055V3.824ZM38.7055 4.824V25.944H40.7055V4.824H38.7055ZM39.7055 26.944H41.9455V24.944H39.7055V26.944ZM59.878 47H58.878V48H59.878V47ZM59.878 43.864V42.864H58.878V43.864H59.878ZM64.422 42.072L63.598 41.5055L63.598 41.5055L64.422 42.072ZM65.894 39.064L66.8267 39.425L66.8315 39.412L65.894 39.064ZM79.91 1.304V0.303997H79.2145L78.9725 0.95601L79.91 1.304ZM87.206 1.304L88.1469 0.965278L87.9088 0.303997H87.206V1.304ZM101.03 39.704L101.975 39.3769L101.971 39.3653L101.03 39.704ZM102.246 42.264L101.432 42.8452L101.446 42.8638L101.46 42.8818L102.246 42.264ZM103.782 43.544L103.363 44.452L103.404 44.4707L103.446 44.4857L103.782 43.544ZM106.79 43.864H107.79V42.864H106.79V43.864ZM106.79 47V48H107.79V47H106.79ZM87.014 47H86.014V48H87.014V47ZM87.014 43.864V42.864H86.014V43.864H87.014ZM91.302 43.224L90.7473 42.3919L90.7339 42.4009L90.7208 42.4103L91.302 43.224ZM92.134 40.28L91.1417 40.404L91.1513 40.4806L91.1725 40.5547L92.134 40.28ZM91.942 39.384L90.9521 39.5254L90.9648 39.6147L90.9933 39.7002L91.942 39.384ZM91.686 38.552L90.7401 38.8763L90.7617 38.9395L90.7916 38.9992L91.686 38.552ZM89.382 31.832L90.3279 31.5077L90.0963 30.832H89.382V31.832ZM73.318 31.832V30.832H72.6021L72.3714 31.5097L73.318 31.832ZM71.27 37.848L72.2063 38.1991L72.2117 38.1848L72.2167 38.1703L71.27 37.848ZM70.886 38.936L69.9373 38.6198L69.921 38.6687L69.9098 38.7191L70.886 38.936ZM70.63 40.088L69.6538 39.8711L69.6421 39.9238L69.6361 39.9776L70.63 40.088ZM71.526 43.224L70.9346 44.0304L70.9527 44.0436L70.9713 44.0561L71.526 43.224ZM76.134 43.864H77.134V42.864H76.134V43.864ZM76.134 47V48H77.134V47H76.134ZM74.598 28.248L73.6571 27.9093L73.1752 29.248H74.598V28.248ZM88.102 28.248V29.248H89.4868L89.0512 27.9335L88.102 28.248ZM84.518 17.432L83.5655 17.7368L83.5688 17.7465L84.518 17.432ZM83.43 14.104L82.4712 14.3881L82.476 14.4042L82.4813 14.4202L83.43 14.104ZM82.406 10.712L81.4404 10.972L81.445 10.9891L81.4502 11.0061L82.406 10.712ZM81.574 7.576L82.5416 7.32358L80.6039 7.33346L81.574 7.576ZM80.934 9.752L79.9853 9.43577L79.9773 9.45987L79.9705 9.48435L80.934 9.752ZM80.23 12.12L79.2764 11.8189L79.2691 11.842L79.2629 11.8655L80.23 12.12ZM79.462 14.616L78.5181 14.2856L78.5131 14.3002L78.5084 14.3149L79.462 14.616ZM78.63 17.048L77.6916 16.7023L77.6891 16.7093L78.63 17.048ZM60.878 47V43.864H58.878V47H60.878ZM59.878 44.864H60.838V42.864H59.878V44.864ZM60.838 44.864C61.7483 44.864 62.5835 44.721 63.3051 44.388L62.4669 42.572C62.0792 42.751 61.549 42.864 60.838 42.864V44.864ZM63.3051 44.388C64.0711 44.0344 64.7098 43.4185 65.246 42.6385L63.598 41.5055C63.1955 42.0908 62.8102 42.4136 62.4669 42.572L63.3051 44.388ZM65.246 42.6385C65.7797 41.8623 66.3033 40.7767 66.8266 39.425L64.9614 38.703C64.4607 39.9967 64.003 40.9164 63.598 41.5055L65.246 42.6385ZM66.8315 39.412L80.8475 1.65198L78.9725 0.95601L64.9565 38.716L66.8315 39.412ZM79.91 2.304H87.206V0.303997H79.91V2.304ZM86.2651 1.64272L100.089 40.0427L101.971 39.3653L88.1469 0.965278L86.2651 1.64272ZM100.085 40.0311C100.484 41.1837 100.927 42.1376 101.432 42.8452L103.06 41.6828C102.712 41.1957 102.344 40.4429 101.975 39.3769L100.085 40.0311ZM101.46 42.8818C102.003 43.5739 102.634 44.1155 103.363 44.452L104.201 42.636C103.821 42.4605 103.427 42.1488 103.032 41.6462L101.46 42.8818ZM103.446 44.4857C104.165 44.7427 104.942 44.864 105.766 44.864V42.864C105.139 42.864 104.593 42.7719 104.118 42.6023L103.446 44.4857ZM105.766 44.864H106.79V42.864H105.766V44.864ZM105.79 43.864V47H107.79V43.864H105.79ZM106.79 46H87.014V48H106.79V46ZM88.014 47V43.864H86.014V47H88.014ZM87.014 44.864H89.126V42.864H87.014V44.864ZM89.126 44.864C90.1528 44.864 91.0899 44.6044 91.8832 44.0377L90.7208 42.4103C90.3194 42.6969 89.8059 42.864 89.126 42.864V44.864ZM91.8567 44.056C92.8383 43.4016 93.262 42.3648 93.262 41.176H91.262C91.262 41.8645 91.0457 42.193 90.7473 42.3919L91.8567 44.056ZM93.262 41.176C93.262 40.7808 93.2054 40.3897 93.0955 40.0053L91.1725 40.5547C91.2333 40.7676 91.262 40.9739 91.262 41.176H93.262ZM93.1263 40.156C93.0776 39.7661 93.0016 39.4005 92.8907 39.0678L90.9933 39.7002C91.0531 39.8795 91.1051 40.1112 91.1417 40.404L93.1263 40.156ZM92.932 39.2426C92.8749 38.8433 92.759 38.462 92.5804 38.1048L90.7916 38.9992C90.869 39.154 90.9238 39.3274 90.9521 39.5254L92.932 39.2426ZM92.6319 38.2277L90.3279 31.5077L88.4361 32.1563L90.7401 38.8763L92.6319 38.2277ZM89.382 30.832H73.318V32.832H89.382V30.832ZM72.3714 31.5097L70.3234 37.5257L72.2167 38.1703L74.2647 32.1543L72.3714 31.5097ZM70.3337 37.4969C70.2009 37.8509 70.0688 38.2253 69.9373 38.6198L71.8347 39.2522C71.9592 38.8787 72.0831 38.5277 72.2063 38.1991L70.3337 37.4969ZM69.9098 38.7191C69.8245 39.1031 69.7391 39.4871 69.6538 39.8711L71.6062 40.3049C71.6915 39.9209 71.7769 39.5369 71.8622 39.1529L69.9098 38.7191ZM69.6361 39.9776C69.5905 40.3882 69.566 40.7676 69.566 41.112H71.566C71.566 40.8591 71.5842 40.5558 71.6239 40.1984L69.6361 39.9776ZM69.566 41.112C69.566 42.3032 69.9888 43.3368 70.9346 44.0304L72.1174 42.4176C71.7832 42.1725 71.566 41.7981 71.566 41.112H69.566ZM70.9713 44.0561C71.8155 44.6188 72.8334 44.864 73.958 44.864V42.864C73.1199 42.864 72.5165 42.6825 72.0807 42.3919L70.9713 44.0561ZM73.958 44.864H76.134V42.864H73.958V44.864ZM75.134 43.864V47H77.134V43.864H75.134ZM76.134 46H59.878V48H76.134V46ZM74.598 29.248H88.102V27.248H74.598V29.248ZM89.0512 27.9335L85.4672 17.1175L83.5688 17.7465L87.1528 28.5625L89.0512 27.9335ZM85.4704 17.1272C85.1278 16.0564 84.7638 14.9433 84.3787 13.7878L82.4813 14.4202C82.8642 15.5687 83.2256 16.6742 83.5656 17.7368L85.4704 17.1272ZM84.3888 13.8199C84.0465 12.6647 83.7042 11.5307 83.3618 10.4179L81.4502 11.0061C81.7905 12.112 82.1308 13.2393 82.4712 14.3881L84.3888 13.8199ZM83.3716 10.452C83.0735 9.34488 82.7969 8.30208 82.5416 7.32358L80.6064 7.82842C80.8631 8.81257 81.1411 9.86045 81.4404 10.972L83.3716 10.452ZM80.6039 7.33346C80.4402 7.98794 80.2344 8.68853 79.9853 9.43577L81.8827 10.0682C82.1456 9.27947 82.3664 8.52939 82.5441 7.81853L80.6039 7.33346ZM79.9705 9.48435C79.7605 10.2404 79.5291 11.0186 79.2764 11.8189L81.1836 12.4211C81.4429 11.6001 81.6809 10.7996 81.8975 10.0196L79.9705 9.48435ZM79.2629 11.8655C79.0568 12.6487 78.8087 13.4554 78.5181 14.2856L80.4059 14.9463C80.7126 14.07 80.9765 13.2126 81.1971 12.3745L79.2629 11.8655ZM78.5084 14.3149C78.2572 15.1103 77.985 15.9061 77.6917 16.7023L79.5683 17.3937C79.8724 16.5685 80.1548 15.743 80.4156 14.9171L78.5084 14.3149ZM77.6891 16.7093L73.6571 27.9093L75.5389 28.5867L79.5709 17.3867L77.6891 16.7093ZM118.491 44.696L117.957 45.5421L117.963 45.5453L118.491 44.696ZM111.451 36.504L110.533 36.9019L110.536 36.9086L110.539 36.9153L111.451 36.504ZM111.579 11.928L112.486 12.3485L112.488 12.3443L111.579 11.928ZM118.811 3.672L119.333 4.52447L119.342 4.51936L118.811 3.672ZM138.395 1.624L138.096 2.57849L138.102 2.5802L138.395 1.624ZM143.067 4.248L143.801 3.56972L143.801 3.56972L143.067 4.248ZM142.683 11.736L143.287 12.5327L143.291 12.5296L142.683 11.736ZM137.499 13.144H136.499V14.144H137.499V13.144ZM136.795 9.112L135.843 9.419L135.847 9.43277L135.852 9.44641L136.795 9.112ZM134.555 5.848L133.896 6.60058L133.913 6.61509L133.93 6.62887L134.555 5.848ZM123.355 6.808L122.695 6.0565L122.686 6.0647L123.355 6.808ZM119.643 13.464L118.676 13.2081L119.643 13.464ZM119.771 34.264L118.813 34.554L118.818 34.5672L119.771 34.264ZM123.995 40.664L124.597 39.8661L124.597 39.8661L123.995 40.664ZM136.923 42.008L137.271 42.9454L137.282 42.9411L137.294 42.9365L136.923 42.008ZM143.323 37.016L143.923 36.216L143.134 35.6246L142.531 36.4046L143.323 37.016ZM144.155 38.104L145.065 37.6902L145.065 37.6902L144.155 38.104ZM143.707 42.392L144.575 42.8881L144.58 42.8795L144.584 42.8709L143.707 42.392ZM141.275 44.952L140.684 44.1446L141.275 44.952ZM136.859 46.936L137.112 47.9034L137.12 47.9013L137.127 47.8992L136.859 46.936ZM130.267 46.64C125.711 46.64 121.981 45.688 119.018 43.8467L117.963 45.5453C121.315 47.6293 125.435 48.64 130.267 48.64V46.64ZM119.024 43.85C116.082 41.9965 113.864 39.4205 112.362 36.0927L110.539 36.9153C112.195 40.5848 114.669 43.4701 117.957 45.542L119.024 43.85ZM112.368 36.1061C110.897 32.7154 110.147 28.7174 110.147 24.088H108.147C108.147 28.9306 108.932 33.2099 110.533 36.9019L112.368 36.1061ZM110.147 24.088C110.147 19.5973 110.936 15.6922 112.486 12.3485L110.671 11.5075C108.978 15.1611 108.147 19.3627 108.147 24.088H110.147ZM112.488 12.3443C114.03 8.97629 116.309 6.37925 119.333 4.52443L118.288 2.81956C114.912 4.89008 112.37 7.79704 110.669 11.5117L112.488 12.3443ZM119.342 4.51936C122.348 2.63544 126.1 1.664 130.651 1.664V-0.336002C125.815 -0.336002 121.673 0.697889 118.279 2.82463L119.342 4.51936ZM130.651 1.664C133.705 1.664 136.178 1.97891 138.096 2.57848L138.693 0.669517C136.515 -0.0109188 133.825 -0.336002 130.651 -0.336002V1.664ZM138.102 2.5802C140.094 3.19018 141.47 3.99271 142.332 4.92628L143.801 3.56972C142.615 2.28462 140.876 1.33782 138.687 0.667797L138.102 2.5802ZM142.332 4.92628C143.205 5.87206 143.603 6.87345 143.603 7.96H145.603C145.603 6.31588 144.976 4.84261 143.801 3.56972L142.332 4.92628ZM143.603 7.96C143.603 9.16727 143.122 10.1393 142.074 10.9424L143.291 12.5296C144.803 11.3701 145.603 9.82473 145.603 7.96H143.603ZM142.078 10.9393C141.075 11.7001 139.59 12.144 137.499 12.144V14.144C139.845 14.144 141.815 13.6492 143.287 12.5327L142.078 10.9393ZM138.499 13.144C138.499 11.6615 138.243 10.2046 137.737 8.77759L135.852 9.44641C136.284 10.6647 136.499 11.8958 136.499 13.144H138.499ZM137.746 8.805C137.26 7.29918 136.402 6.04519 135.179 5.06713L133.93 6.62887C134.841 7.35747 135.475 8.27948 135.843 9.419L137.746 8.805ZM135.213 5.09542C133.955 3.99506 132.287 3.504 130.331 3.504V5.504C131.958 5.504 133.106 5.90894 133.896 6.60058L135.213 5.09542ZM130.331 3.504C127.248 3.504 124.668 4.32368 122.695 6.05656L124.014 7.55944C125.539 6.22032 127.61 5.504 130.331 5.504V3.504ZM122.686 6.0647C120.796 7.76521 119.478 10.1757 118.676 13.2081L120.609 13.7199C121.343 10.9497 122.5 8.92279 124.023 7.55129L122.686 6.0647ZM118.676 13.2081C117.879 16.2184 117.491 19.8514 117.491 24.088H119.491C119.491 19.9619 119.87 16.5122 120.609 13.7199L118.676 13.2081ZM117.491 24.088C117.491 28.1224 117.924 31.6177 118.813 34.554L120.728 33.974C119.911 31.2783 119.491 27.9896 119.491 24.088H117.491ZM118.818 34.5672C119.762 37.5348 121.272 39.8605 123.392 41.4619L124.597 39.8661C122.877 38.5662 121.571 36.6252 120.723 33.9608L118.818 34.5672ZM123.392 41.4619C125.53 43.0778 128.279 43.84 131.547 43.84V41.84C128.585 41.84 126.299 41.1515 124.597 39.8661L123.392 41.4619ZM131.547 43.84C133.721 43.84 135.637 43.5522 137.271 42.9454L136.574 41.0706C135.221 41.5732 133.553 41.84 131.547 41.84V43.84ZM137.294 42.9365C138.874 42.3046 140.234 41.5032 141.357 40.5206L140.04 39.0154C139.115 39.8248 137.958 40.5167 136.551 41.0795L137.294 42.9365ZM141.357 40.5206C142.423 39.588 143.344 38.6242 144.114 37.6274L142.531 36.4046C141.851 37.2852 141.022 38.156 140.04 39.0154L141.357 40.5206ZM142.723 37.816C142.904 37.9524 143.086 38.1696 143.244 38.5178L145.065 37.6902C144.796 37.0998 144.423 36.5916 143.923 36.216L142.723 37.816ZM143.244 38.5178C143.39 38.8381 143.475 39.2269 143.475 39.704H145.475C145.475 38.9864 145.346 38.3085 145.065 37.6902L143.244 38.5178ZM143.475 39.704C143.475 40.3528 143.28 41.0849 142.829 41.9131L144.584 42.8709C145.157 41.8218 145.475 40.7618 145.475 39.704H143.475ZM142.838 41.8959C142.415 42.6363 141.716 43.3908 140.684 44.1446L141.865 45.7594C143.052 44.8918 143.974 43.9397 144.575 42.8881L142.838 41.8959ZM140.684 44.1446C139.702 44.8629 138.35 45.4815 136.59 45.9728L137.127 47.8992C139.036 47.3665 140.629 46.6624 141.865 45.7594L140.684 44.1446ZM136.605 45.9686C134.922 46.4095 132.815 46.64 130.267 46.64V48.64C132.923 48.64 135.211 48.4011 137.112 47.9034L136.605 45.9686ZM156.791 47H155.791V48H156.791V47ZM156.791 43.864V42.864H155.791V43.864H156.791ZM161.079 43.608L161.353 44.5695L161.384 44.5606L161.415 44.5497L161.079 43.608ZM162.487 42.392L161.645 41.8512L161.631 41.8732L161.618 41.8959L162.487 42.392ZM163.062 4.952H164.062V3.952H163.062V4.952ZM154.551 5.592L155.018 6.47579L155.038 6.4653L155.058 6.45393L154.551 5.592ZM152.951 7.256L152.046 6.8302L152.046 6.8302L152.951 7.256ZM152.247 9.752L151.256 9.61689L151.254 9.6302L151.252 9.64355L152.247 9.752ZM151.863 13.272V14.272H152.759L152.857 13.3804L151.863 13.272ZM147.959 13.272L146.959 13.2453L146.931 14.272H147.959V13.272ZM148.279 1.304V0.303997H147.305L147.279 1.27727L148.279 1.304ZM186.679 1.304L187.678 1.27727L187.652 0.303997H186.679V1.304ZM186.999 13.272V14.272H188.026L187.998 13.2453L186.999 13.272ZM183.095 13.272L182.103 13.3983L182.214 14.272H183.095V13.272ZM182.647 9.752L181.651 9.84254L181.652 9.86043L181.655 9.87825L182.647 9.752ZM181.943 7.256L181.038 7.6818L181.048 7.70309L181.059 7.72388L181.943 7.256ZM180.343 5.592L179.835 6.45393L179.855 6.4653L179.875 6.47579L180.343 5.592ZM171.831 4.952V3.952H170.831V4.952H171.831ZM172.343 42.392L171.46 42.8626L171.467 42.8755L171.474 42.8881L172.343 42.392ZM173.815 43.608L173.498 44.5567L173.527 44.5664L173.557 44.5742L173.815 43.608ZM178.103 43.864H179.103V42.864H178.103V43.864ZM178.103 47V48H179.103V47H178.103ZM157.791 47V43.864H155.791V47H157.791ZM156.791 44.864H159.031V42.864H156.791V44.864ZM159.031 44.864C159.87 44.864 160.648 44.7709 161.353 44.5695L160.804 42.6465C160.314 42.7864 159.727 42.864 159.031 42.864V44.864ZM161.415 44.5497C162.257 44.2491 162.906 43.6738 163.355 42.8881L161.618 41.8959C161.385 42.3049 161.095 42.5402 160.742 42.6663L161.415 44.5497ZM163.328 42.9328C163.867 42.094 164.062 40.9441 164.062 39.64H162.062C162.062 40.8106 161.874 41.4953 161.645 41.8512L163.328 42.9328ZM164.062 39.64V4.952H162.062V39.64H164.062ZM163.062 3.952H157.559V5.952H163.062V3.952ZM157.559 3.952C156.186 3.952 154.983 4.1777 154.043 4.73006L155.058 6.45393C155.569 6.15297 156.371 5.952 157.559 5.952V3.952ZM154.083 4.70821C153.171 5.19094 152.482 5.90396 152.046 6.8302L153.855 7.68179C154.102 7.15737 154.48 6.76106 155.018 6.47579L154.083 4.70821ZM152.046 6.8302C151.654 7.66244 151.395 8.5953 151.256 9.61689L153.237 9.88711C153.354 9.03136 153.564 8.30022 153.855 7.68179L152.046 6.8302ZM151.252 9.64355L150.868 13.1636L152.857 13.3804L153.241 9.86045L151.252 9.64355ZM151.863 12.272H147.959V14.272H151.863V12.272ZM148.958 13.2987L149.278 1.33073L147.279 1.27727L146.959 13.2453L148.958 13.2987ZM148.279 2.304H186.679V0.303997H148.279V2.304ZM185.679 1.33073L185.999 13.2987L187.998 13.2453L187.678 1.27727L185.679 1.33073ZM186.999 12.272H183.095V14.272H186.999V12.272ZM184.086 13.1457L183.639 9.62575L181.655 9.87825L182.103 13.3983L184.086 13.1457ZM183.642 9.66146C183.547 8.61026 183.281 7.64665 182.826 6.78811L181.059 7.72388C181.372 8.31601 181.576 9.0164 181.651 9.84254L183.642 9.66146ZM182.847 6.8302C182.411 5.90396 181.722 5.19094 180.81 4.70821L179.875 6.47579C180.413 6.76106 180.791 7.15737 181.038 7.6818L182.847 6.8302ZM180.85 4.73006C179.91 4.1777 178.707 3.952 177.335 3.952V5.952C178.522 5.952 179.324 6.15297 179.835 6.45393L180.85 4.73006ZM177.335 3.952H171.831V5.952H177.335V3.952ZM170.831 4.952V39.576H172.831V4.952H170.831ZM170.831 39.576C170.831 40.8764 171.005 42.0091 171.46 42.8626L173.225 41.9214C172.997 41.4949 172.831 40.7503 172.831 39.576H170.831ZM171.474 42.8881C171.935 43.6944 172.62 44.2639 173.498 44.5567L174.131 42.6593C173.729 42.5255 173.433 42.2842 173.211 41.8959L171.474 42.8881ZM173.557 44.5742C174.288 44.7693 175.058 44.864 175.863 44.864V42.864C175.216 42.864 174.621 42.788 174.072 42.6418L173.557 44.5742ZM175.863 44.864H178.103V42.864H175.863V44.864ZM177.103 43.864V47H179.103V43.864H177.103ZM178.103 46H156.791V48H178.103V46Z" fill="white"/>
</svg>
