<svg width="171" height="15" viewBox="0 0 145 13" fill="none" xmlns="http://www.w3.org/2000/svg">
  <path d="M18.5406 1.79934C15.8006 1.79934 13.7913 3.78229 13.7913 6.48131C13.7913 9.18032 15.8006 11.1633 18.5406 11.1633C21.2805 11.1633 23.2899 9.18032 23.2899 6.48131C23.2533 3.80065 21.2623 1.79934 18.5406 1.79934ZM18.4492 9.36393C16.8052 9.36393 15.7275 8.18885 15.7275 6.48131C15.7275 4.77377 16.8052 3.59869 18.4492 3.59869C20.1298 3.59869 21.1709 4.73705 21.1709 6.48131C21.1709 8.20721 20.1115 9.36393 18.4492 9.36393ZM7.89116 6.27934C8.85928 5.87541 9.73608 4.90229 9.73608 3.50688C9.73608 1.52393 8.20169 0.183607 5.93663 0.183607H0V12.7607H6.0645C8.45742 12.7607 9.95528 11.3836 9.95528 9.30885C9.91875 7.96852 9.04195 6.73836 7.89116 6.27934ZM1.91799 1.87279H5.64437C6.92303 1.87279 7.70849 2.58885 7.70849 3.69049C7.70849 4.79213 6.90476 5.47147 5.64437 5.47147H1.91799V1.87279ZM5.69917 11.0898H1.91799V7.21573H5.71744C7.08743 7.21573 7.96422 7.96852 7.96422 9.16196C7.94596 10.3554 7.06916 11.0898 5.69917 11.0898ZM27.4912 0.918033C27.4912 0.459016 27.8565 0.0918033 28.2949 0.0918033H37.5013C37.9397 0.0918033 38.305 0.459016 38.305 0.899672C38.305 1.35869 37.9397 1.7259 37.5013 1.7259H28.2949C27.8565 1.74426 27.4912 1.37705 27.4912 0.918033ZM38.3233 12.1731C38.3233 12.6321 37.9579 12.9993 37.5195 12.9993H28.3132C27.8748 13.0177 27.5094 12.6505 27.5094 12.1915C27.5094 11.7325 27.8748 11.3652 28.3132 11.3652H37.5195C37.9579 11.3652 38.305 11.7325 38.3233 12.1731ZM126.88 0.201967H128.816V12.779H126.88V0.201967ZM65.7779 9.23541C65.7779 11.0531 64.4627 12.9993 60.8277 12.9993C58.179 12.9993 56.6081 11.8977 55.7678 10.9797L55.6765 10.8695L56.8456 9.4741L56.9734 9.60262C57.5762 10.2452 58.8731 11.3102 60.9007 11.3102C63.0014 11.3102 63.7868 10.3187 63.7868 9.36393C63.7868 8.0236 62.289 7.65639 60.5354 7.21573C58.453 6.66492 56.0966 6.05901 56.0966 3.56197C56.0966 1.48721 58.0329 0 60.7181 0C62.6543 0 64.2252 0.56918 65.4126 1.78098L65.5039 1.89115L64.3348 3.2682L64.207 3.13967C63.3302 2.20328 62.015 1.70754 60.5719 1.70754C59.0923 1.70754 58.0511 2.42361 58.0511 3.48852C58.0511 4.55344 59.4211 4.92065 61.0286 5.32459C63.1658 5.83869 65.7779 6.48131 65.7779 9.23541ZM138.187 0.201967H133.602V12.779H138.187C142.169 12.779 145 10.2085 145 6.51803C144.982 2.79082 142.205 0.201967 138.187 0.201967ZM138.187 11.0898H135.538V1.87279H138.187C141.109 1.87279 142.972 3.69049 142.972 6.49967C142.991 9.23541 141.073 11.0898 138.187 11.0898ZM105.709 4.02098C105.709 1.7259 104.01 0.183607 101.489 0.183607H96.1187V12.7607H98.0549V7.89508H100.375L103.644 12.7423H105.964L102.457 7.71147C104.174 7.49115 105.709 6.27934 105.709 4.02098ZM98.0732 6.22426V1.87279H101.288C102.731 1.87279 103.699 2.77246 103.699 4.02098C103.699 5.32459 102.695 6.22426 101.288 6.22426H98.0732ZM68.9746 0.201967H79.1308V1.87279H75.0025V12.7607H73.0663V1.87279H68.9746V0.201967ZM83.0398 0.201967H91.8443V1.87279H84.9761V5.45311H91.7164V7.12393H84.9761V10.998H91.8443V12.6688H83.0398V0.201967ZM45.7029 0C42.1775 0 39.5289 2.3318 39.1453 5.65508H36.5879C36.1495 5.65508 35.7842 6.02229 35.7659 6.48131C35.7659 6.95869 36.1313 7.34426 36.5879 7.34426H39.1453C39.5289 10.6675 42.1775 12.9993 45.7029 12.9993C49.5207 12.9993 52.3154 10.2636 52.3154 6.49967C52.2972 2.7541 49.5207 0 45.7029 0ZM45.7029 11.3102C43.237 11.3102 41.5016 9.74951 41.1728 7.34426H42.8716C43.3283 7.34426 43.6936 6.97705 43.6936 6.48131C43.6936 6.02229 43.31 5.65508 42.8716 5.65508H41.1728C41.5016 3.23147 43.237 1.67082 45.7029 1.67082C48.4429 1.67082 50.2879 3.61705 50.2879 6.49967C50.2879 9.30885 48.4247 11.3102 45.7029 11.3102Z" fill="white"/>
  <mask id="mask0_6012_116589" style="mask-type:alpha" maskUnits="userSpaceOnUse" x="109" y="0" width="14" height="13">
    <ellipse cx="116" cy="6.5" rx="7" ry="6.5" fill="#C4C4C4"/>
  </mask>
  <g mask="url(#mask0_6012_116589)">
    <path d="M250.1 -73.7998H-18V7.6002H250.1V-73.7998Z" fill="#005BBB"/>
    <path d="M250.1 6.5H-18V90.1H250.1V6.5Z" fill="#FFD500"/>
  </g>
</svg>
