<svg width="20" height="20" viewBox="0 0 20 20" fill="none" xmlns="http://www.w3.org/2000/svg">
<path d="M8.88395 1.9043C6.57667 4.21168 6.366 7.83376 8.25156 10.3816L6.31072 12.3225C5.93346 12.6998 5.93346 13.3117 6.31072 13.6894C6.68799 14.0667 7.29989 14.0667 7.67754 13.6894L9.61838 11.7485C12.1661 13.6341 15.788 13.4234 18.0953 11.116C20.6349 8.57634 20.6349 4.444 18.0953 1.90468C15.5557 -0.634637 11.4232 -0.635023 8.88395 1.9043ZM16.7285 9.74917C15.1769 11.3008 12.7803 11.5042 11.0069 10.3599L11.773 9.59377C12.1502 9.21649 12.1502 8.60456 11.773 8.22689C11.3957 7.84961 10.7838 7.84961 10.4062 8.22689L9.64003 8.99306C8.49586 7.21951 8.69918 4.82283 10.2508 3.27118C12.0366 1.48526 14.9426 1.48526 16.7285 3.27118C18.5143 5.05709 18.5143 7.96326 16.7285 9.74917ZM10.8561 14.2549C11.2334 14.6322 11.2334 15.2441 10.8561 15.6218L6.76105 19.717C6.38378 20.0943 5.77188 20.0943 5.39423 19.717C5.01696 19.3398 5.01696 18.7278 5.39423 18.3502L9.48966 14.2549C9.86693 13.8776 10.4788 13.8776 10.8561 14.2549ZM0.28295 14.6055C-0.0943168 14.2283 -0.0943168 13.6163 0.28295 13.2387L4.37839 9.14304C4.75566 8.76576 5.36755 8.76576 5.74521 9.14304C6.12248 9.52033 6.12248 10.1323 5.74521 10.5099L1.64977 14.6055C1.27212 14.9832 0.660604 14.9832 0.28295 14.6055Z" fill="white"/>
</svg>
